solid OpenSCAD_Model
  facet normal 1 0 0
    outer loop
      vertex 30 -27.1275 49
      vertex 30 -30 49
      vertex 30 -28.0563 48.5061
    endloop
  endfacet
  facet normal 1 0 0
    outer loop
      vertex 30 -30 49
      vertex 30 -26 44.6388
      vertex 30 -28.0563 48.5061
    endloop
  endfacet
  facet normal 1 0 0
    outer loop
      vertex 30 26 2
      vertex 30 30 49
      vertex 30 26 49
    endloop
  endfacet
  facet normal 1 0 0
    outer loop
      vertex 30 30 49
      vertex 30 26 2
      vertex 30 30 -1.5
    endloop
  endfacet
  facet normal 1 0 0
    outer loop
      vertex 30 6.66134e-015 -4.76837e-007
      vertex 30 26 2
      vertex 30 6.66134e-015 2
    endloop
  endfacet
  facet normal 1 0 0
    outer loop
      vertex 30 26 2
      vertex 30 6.66134e-015 -4.76837e-007
      vertex 30 30 -1.5
    endloop
  endfacet
  facet normal 1 -0 0
    outer loop
      vertex 30 -1.76589 -0.938944
      vertex 30 30 -1.5
      vertex 30 6.66134e-015 -4.76837e-007
    endloop
  endfacet
  facet normal 1 -0 0
    outer loop
      vertex 30 -26 2
      vertex 30 -1.76589 -0.938944
      vertex 30 -3.32856 2
    endloop
  endfacet
  facet normal 1 0 0
    outer loop
      vertex 30 -30 -1.5
      vertex 30 -26 44.6388
      vertex 30 -30 49
    endloop
  endfacet
  facet normal 1 0 0
    outer loop
      vertex 30 -1.76589 -0.938944
      vertex 30 -30 -1.5
      vertex 30 30 -1.5
    endloop
  endfacet
  facet normal 1 0 0
    outer loop
      vertex 30 -26 2
      vertex 30 -30 -1.5
      vertex 30 -1.76589 -0.938944
    endloop
  endfacet
  facet normal 1 0 0
    outer loop
      vertex 30 -26 44.6388
      vertex 30 -30 -1.5
      vertex 30 -26 2
    endloop
  endfacet
  facet normal 0 1 0
    outer loop
      vertex 30 30 49
      vertex 26 30 44.6388
      vertex 23.7886 30 49
    endloop
  endfacet
  facet normal 0 1 -0
    outer loop
      vertex 30 30 -1.5
      vertex 26 30 44.6388
      vertex 30 30 49
    endloop
  endfacet
  facet normal 0 1 0
    outer loop
      vertex 30 30 -1.5
      vertex 3.32856 30 2
      vertex 26 30 2
    endloop
  endfacet
  facet normal 0 1 0
    outer loop
      vertex 3.32856 30 2
      vertex 30 30 -1.5
      vertex -1.61648e-014 30 2
    endloop
  endfacet
  facet normal 0 1 0
    outer loop
      vertex -30 30 -1.5
      vertex -1.61648e-014 30 2
      vertex 30 30 -1.5
    endloop
  endfacet
  facet normal 0 1 0
    outer loop
      vertex 26 30 44.6388
      vertex 30 30 -1.5
      vertex 26 30 2
    endloop
  endfacet
  facet normal 0 1 0
    outer loop
      vertex 26 30 44.6388
      vertex -1.64416e-014 30 4.26011
      vertex 23.7886 30 49
    endloop
  endfacet
  facet normal 0 1 -0
    outer loop
      vertex 3.32856 30 2
      vertex -1.64416e-014 30 4.26011
      vertex 26 30 44.6388
    endloop
  endfacet
  facet normal 0 1 0
    outer loop
      vertex -1.64416e-014 30 4.26011
      vertex 3.32856 30 2
      vertex -1.61648e-014 30 2
    endloop
  endfacet
  facet normal 0 1 -0
    outer loop
      vertex -26 30 2
      vertex -30 30 49
      vertex -26 30 49
    endloop
  endfacet
  facet normal 0 1 0
    outer loop
      vertex -26 30 2
      vertex -30 30 -1.5
      vertex -30 30 49
    endloop
  endfacet
  facet normal 0 1 0
    outer loop
      vertex -1.61648e-014 30 2
      vertex -30 30 -1.5
      vertex -26 30 2
    endloop
  endfacet
  facet normal 0 0 1
    outer loop
      vertex -3.32856 30 2
      vertex -23.1716 26 2
      vertex -3.32856 26 2
    endloop
  endfacet
  facet normal 0 -0 1
    outer loop
      vertex -23.1716 26 2
      vertex -3.32856 30 2
      vertex -26 30 2
    endloop
  endfacet
  facet normal 0 0 1
    outer loop
      vertex 26 23.1716 2
      vertex 30 26 2
      vertex 26 26 2
    endloop
  endfacet
  facet normal 0 0 1
    outer loop
      vertex 30 26 2
      vertex 26 23.1716 2
      vertex 30 3.32856 2
    endloop
  endfacet
  facet normal 0 0 1
    outer loop
      vertex 30 3.32856 2
      vertex 26 23.1716 2
      vertex 26 3.32856 2
    endloop
  endfacet
  facet normal 0 0 1
    outer loop
      vertex 23.1716 26 2
      vertex 26 26 2
      vertex 26 30 2
    endloop
  endfacet
  facet normal 0 0 1
    outer loop
      vertex 26 26 2
      vertex 23.1716 26 2
      vertex 26 23.1716 2
    endloop
  endfacet
  facet normal -0 0 1
    outer loop
      vertex 3.32856 30 2
      vertex 23.1716 26 2
      vertex 26 30 2
    endloop
  endfacet
  facet normal 0 0 1
    outer loop
      vertex 23.1716 26 2
      vertex 3.32856 30 2
      vertex 3.32856 26 2
    endloop
  endfacet
  facet normal 0 0 1
    outer loop
      vertex 23.1716 26 2
      vertex 15 12.1716 2
      vertex 26 23.1716 2
    endloop
  endfacet
  facet normal 0 0 1
    outer loop
      vertex 15 12.1716 2
      vertex 12.1716 15 2
      vertex 15 -12.1716 2
    endloop
  endfacet
  facet normal -0 0 1
    outer loop
      vertex 12.1716 15 2
      vertex 15 12.1716 2
      vertex 23.1716 26 2
    endloop
  endfacet
  facet normal 0 0 1
    outer loop
      vertex 26 -23.1716 2
      vertex 30 -3.32856 2
      vertex 26 -3.32856 2
    endloop
  endfacet
  facet normal 0 0 1
    outer loop
      vertex 30 -3.32856 2
      vertex 26 -23.1716 2
      vertex 30 -26 2
    endloop
  endfacet
  facet normal 0 0 1
    outer loop
      vertex 26 -23.1716 2
      vertex 26 -26 2
      vertex 30 -26 2
    endloop
  endfacet
  facet normal 0 0 1
    outer loop
      vertex 23.1716 -26 2
      vertex 26 -26 2
      vertex 26 -23.1716 2
    endloop
  endfacet
  facet normal 0 0 1
    outer loop
      vertex 26 -26 2
      vertex 23.1716 -26 2
      vertex 26 -30 2
    endloop
  endfacet
  facet normal 0 0 1
    outer loop
      vertex 15 -12.1716 2
      vertex 23.1716 -26 2
      vertex 26 -23.1716 2
    endloop
  endfacet
  facet normal 0 0 1
    outer loop
      vertex 15 -12.1716 2
      vertex 12.1716 -15 2
      vertex 23.1716 -26 2
    endloop
  endfacet
  facet normal 0 0 1
    outer loop
      vertex 12.1716 15 2
      vertex 12.1716 -15 2
      vertex 15 -12.1716 2
    endloop
  endfacet
  facet normal -0 0 1
    outer loop
      vertex -12.1716 15 2
      vertex 12.1716 -15 2
      vertex 12.1716 15 2
    endloop
  endfacet
  facet normal 0 0 1
    outer loop
      vertex -12.1716 15 2
      vertex -12.1716 -15 2
      vertex 12.1716 -15 2
    endloop
  endfacet
  facet normal 0 0 1
    outer loop
      vertex -12.1716 15 2
      vertex -15 12.1716 2
      vertex -12.1716 -15 2
    endloop
  endfacet
  facet normal 0 0 1
    outer loop
      vertex -23.1716 26 2
      vertex -15 12.1716 2
      vertex -12.1716 15 2
    endloop
  endfacet
  facet normal 0 0 1
    outer loop
      vertex -26 26 2
      vertex -23.1716 26 2
      vertex -26 30 2
    endloop
  endfacet
  facet normal 0 0 1
    outer loop
      vertex -26 23.1716 2
      vertex -23.1716 26 2
      vertex -26 26 2
    endloop
  endfacet
  facet normal 0 0 1
    outer loop
      vertex -23.1716 26 2
      vertex -26 23.1716 2
      vertex -15 12.1716 2
    endloop
  endfacet
  facet normal -0 0 1
    outer loop
      vertex -30 26 2
      vertex -26 23.1716 2
      vertex -26 26 2
    endloop
  endfacet
  facet normal 0 0 1
    outer loop
      vertex -30 3.32856 2
      vertex -26 23.1716 2
      vertex -30 26 2
    endloop
  endfacet
  facet normal 0 0 1
    outer loop
      vertex -26 23.1716 2
      vertex -30 3.32856 2
      vertex -26 3.32856 2
    endloop
  endfacet
  facet normal 0 0 1
    outer loop
      vertex 3.32856 -30 2
      vertex 23.1716 -26 2
      vertex 3.32856 -26 2
    endloop
  endfacet
  facet normal 0 0 1
    outer loop
      vertex 23.1716 -26 2
      vertex 3.32856 -30 2
      vertex 26 -30 2
    endloop
  endfacet
  facet normal -0 0 1
    outer loop
      vertex -15 -12.1716 2
      vertex -12.1716 -15 2
      vertex -15 12.1716 2
    endloop
  endfacet
  facet normal 0 0 1
    outer loop
      vertex -15 -12.1716 2
      vertex -23.1716 -26 2
      vertex -12.1716 -15 2
    endloop
  endfacet
  facet normal 0 -0 1
    outer loop
      vertex -23.1716 -26 2
      vertex -15 -12.1716 2
      vertex -26 -23.1716 2
    endloop
  endfacet
  facet normal -0 0 1
    outer loop
      vertex -23.1716 -26 2
      vertex -3.32856 -30 2
      vertex -3.32856 -26 2
    endloop
  endfacet
  facet normal 0 0 1
    outer loop
      vertex -26 -26 2
      vertex -23.1716 -26 2
      vertex -26 -23.1716 2
    endloop
  endfacet
  facet normal 0 0 1
    outer loop
      vertex -26 -30 2
      vertex -23.1716 -26 2
      vertex -26 -26 2
    endloop
  endfacet
  facet normal 0 0 1
    outer loop
      vertex -23.1716 -26 2
      vertex -26 -30 2
      vertex -3.32856 -30 2
    endloop
  endfacet
  facet normal -0 0 1
    outer loop
      vertex -30 -3.32856 2
      vertex -26 -23.1716 2
      vertex -26 -3.32856 2
    endloop
  endfacet
  facet normal 0 0 1
    outer loop
      vertex -30 -26 2
      vertex -26 -23.1716 2
      vertex -30 -3.32856 2
    endloop
  endfacet
  facet normal 0 0 1
    outer loop
      vertex -26 -23.1716 2
      vertex -30 -26 2
      vertex -26 -26 2
    endloop
  endfacet
  facet normal 0 0 0
    outer loop
      vertex -1.61648e-014 30 2
      vertex -26 30 2
      vertex -3.32856 30 2
    endloop
  endfacet
  facet normal 0 0 0
    outer loop
      vertex 26 -23.1716 2
      vertex 26 -3.32856 2
      vertex 26 5.77316e-015 2
    endloop
  endfacet
  facet normal 0 0 0
    outer loop
      vertex -1.5675e-014 26 2
      vertex 23.1716 26 2
      vertex 3.32856 26 2
    endloop
  endfacet
  facet normal 0 0 0
    outer loop
      vertex -26 3.32856 2
      vertex -26 -5.77316e-015 2
      vertex -26 23.1716 2
    endloop
  endfacet
  facet normal 0 0 0
    outer loop
      vertex 30 26 2
      vertex 30 3.32856 2
      vertex 30 6.66134e-015 2
    endloop
  endfacet
  facet normal 0 -1 0
    outer loop
      vertex -30 -30 49
      vertex -26 -30 44.6388
      vertex -23.7886 -30 49
    endloop
  endfacet
  facet normal 0 -1 0
    outer loop
      vertex -30 -30 -1.5
      vertex -26 -30 44.6388
      vertex -30 -30 49
    endloop
  endfacet
  facet normal 0 -1 0
    outer loop
      vertex -30 -30 -1.5
      vertex -3.32856 -30 2
      vertex -26 -30 2
    endloop
  endfacet
  facet normal 0 -1 -0
    outer loop
      vertex -3.32856 -30 2
      vertex -30 -30 -1.5
      vertex 3.32856 -30 2
    endloop
  endfacet
  facet normal 0 -1 0
    outer loop
      vertex 30 -30 -1.5
      vertex 3.32856 -30 2
      vertex -30 -30 -1.5
    endloop
  endfacet
  facet normal 0 -1 -0
    outer loop
      vertex -26 -30 44.6388
      vertex -30 -30 -1.5
      vertex -26 -30 2
    endloop
  endfacet
  facet normal 0 -1 0
    outer loop
      vertex -26 -30 44.6388
      vertex -1.27678e-014 -30 4.26011
      vertex -23.7886 -30 49
    endloop
  endfacet
  facet normal -0 -1 0
    outer loop
      vertex -1.27678e-014 -30 4.26011
      vertex -26 -30 44.6388
      vertex -3.32856 -30 2
    endloop
  endfacet
  facet normal 0 -1 0
    outer loop
      vertex 23.7886 -30 49
      vertex 26 -30 44.6388
      vertex 30 -30 49
    endloop
  endfacet
  facet normal 0 -1 0
    outer loop
      vertex -1.27678e-014 -30 4.26011
      vertex 26 -30 44.6388
      vertex 23.7886 -30 49
    endloop
  endfacet
  facet normal 0 -1 0
    outer loop
      vertex -1.27678e-014 -30 4.26011
      vertex 3.32856 -30 2
      vertex 26 -30 44.6388
    endloop
  endfacet
  facet normal 0 -1 0
    outer loop
      vertex 3.32856 -30 2
      vertex -1.27678e-014 -30 4.26011
      vertex -3.32856 -30 2
    endloop
  endfacet
  facet normal 0 -1 0
    outer loop
      vertex 30 -30 -1.5
      vertex 26 -30 44.6388
      vertex 26 -30 2
    endloop
  endfacet
  facet normal 0 -1 0
    outer loop
      vertex 26 -30 44.6388
      vertex 30 -30 -1.5
      vertex 30 -30 49
    endloop
  endfacet
  facet normal 0 -1 0
    outer loop
      vertex 3.32856 -30 2
      vertex 30 -30 -1.5
      vertex 26 -30 2
    endloop
  endfacet
  facet normal -1 0 0
    outer loop
      vertex 26 23.1716 -1.5
      vertex 26 3.32856 2
      vertex 26 23.1716 2
    endloop
  endfacet
  facet normal -1 0 0
    outer loop
      vertex 26 23.1716 -1.5
      vertex 26 1.76589 -0.938944
      vertex 26 3.32856 2
    endloop
  endfacet
  facet normal -1 0 0
    outer loop
      vertex 26 -23.1716 -1.5
      vertex 26 1.76589 -0.938944
      vertex 26 23.1716 -1.5
    endloop
  endfacet
  facet normal -1 0 0
    outer loop
      vertex 26 -23.1716 -1.5
      vertex 26 5.77316e-015 -4.76837e-007
      vertex 26 1.76589 -0.938944
    endloop
  endfacet
  facet normal -1 0 0
    outer loop
      vertex 26 -23.1716 2
      vertex 26 5.77316e-015 -4.76837e-007
      vertex 26 -23.1716 -1.5
    endloop
  endfacet
  facet normal -1 0 0
    outer loop
      vertex 26 5.77316e-015 -4.76837e-007
      vertex 26 -23.1716 2
      vertex 26 5.77316e-015 2
    endloop
  endfacet
  facet normal 1 0 0
    outer loop
      vertex -26 -5.77316e-015 -4.76837e-007
      vertex -26 23.1716 2
      vertex -26 -5.77316e-015 2
    endloop
  endfacet
  facet normal 1 0 0
    outer loop
      vertex -26 23.1716 2
      vertex -26 -5.77316e-015 -4.76837e-007
      vertex -26 23.1716 -1.5
    endloop
  endfacet
  facet normal 1 -0 0
    outer loop
      vertex -26 -1.76589 -0.938944
      vertex -26 23.1716 -1.5
      vertex -26 -5.77316e-015 -4.76837e-007
    endloop
  endfacet
  facet normal 1 0 0
    outer loop
      vertex -26 -23.1716 -1.5
      vertex -26 -3.32856 2
      vertex -26 -23.1716 2
    endloop
  endfacet
  facet normal 1 0 0
    outer loop
      vertex -26 -1.76589 -0.938944
      vertex -26 -23.1716 -1.5
      vertex -26 23.1716 -1.5
    endloop
  endfacet
  facet normal 1 0 0
    outer loop
      vertex -26 -3.32856 2
      vertex -26 -23.1716 -1.5
      vertex -26 -1.76589 -0.938944
    endloop
  endfacet
  facet normal 0 1 -0
    outer loop
      vertex 30 -26 2
      vertex 26 -26 44.6388
      vertex 30 -26 44.6388
    endloop
  endfacet
  facet normal 0 1 0
    outer loop
      vertex 26 -26 44.6388
      vertex 30 -26 2
      vertex 26 -26 2
    endloop
  endfacet
  facet normal 0 1 -0
    outer loop
      vertex 26 -26 44.6388
      vertex 23.7886 -26 49
      vertex 26 -26 49
    endloop
  endfacet
  facet normal 0 1 0
    outer loop
      vertex 26 -26 44.6388
      vertex -1.27678e-014 -26 4.26011
      vertex 23.7886 -26 49
    endloop
  endfacet
  facet normal -0 1 0
    outer loop
      vertex -1.27678e-014 -26 4.26011
      vertex 26 -26 44.6388
      vertex 3.32856 -26 2
    endloop
  endfacet
  facet normal 0 1 0
    outer loop
      vertex -23.7886 -26 49
      vertex -26 -26 44.6388
      vertex -26 -26 49
    endloop
  endfacet
  facet normal 0 1 0
    outer loop
      vertex -1.27678e-014 -26 4.26011
      vertex -26 -26 44.6388
      vertex -23.7886 -26 49
    endloop
  endfacet
  facet normal 0 1 0
    outer loop
      vertex -1.27678e-014 -26 4.26011
      vertex -3.32856 -26 2
      vertex -26 -26 44.6388
    endloop
  endfacet
  facet normal 0 1 -0
    outer loop
      vertex -1.22461e-014 -26 -4.76837e-007
      vertex -1.27678e-014 -26 4.26011
      vertex 3.32856 -26 2
    endloop
  endfacet
  facet normal 0 1 0
    outer loop
      vertex -1.27678e-014 -26 4.26011
      vertex -1.22461e-014 -26 -4.76837e-007
      vertex -3.32856 -26 2
    endloop
  endfacet
  facet normal -0 1 0
    outer loop
      vertex -1.22461e-014 -26 -4.76837e-007
      vertex 3.32856 -26 2
      vertex 1.76589 -26 -0.938944
    endloop
  endfacet
  facet normal 0 1 0
    outer loop
      vertex -3.32856 -26 2
      vertex -1.22461e-014 -26 -4.76837e-007
      vertex -1.76589 -26 -0.938944
    endloop
  endfacet
  facet normal 0 1 -0
    outer loop
      vertex 23.1716 -26 -1.5
      vertex 3.32856 -26 2
      vertex 23.1716 -26 2
    endloop
  endfacet
  facet normal 0 1 0
    outer loop
      vertex 1.76589 -26 -0.938944
      vertex 23.1716 -26 -1.5
      vertex -1.76589 -26 -0.938944
    endloop
  endfacet
  facet normal 0 1 0
    outer loop
      vertex 3.32856 -26 2
      vertex 23.1716 -26 -1.5
      vertex 1.76589 -26 -0.938944
    endloop
  endfacet
  facet normal 0 1 0
    outer loop
      vertex -1.22461e-014 -26 -4.76837e-007
      vertex 1.76589 -26 -0.938944
      vertex -1.76589 -26 -0.938944
    endloop
  endfacet
  facet normal 0 1 0
    outer loop
      vertex -23.1716 -26 -1.5
      vertex -3.32856 -26 2
      vertex -1.76589 -26 -0.938944
    endloop
  endfacet
  facet normal 0 1 0
    outer loop
      vertex -3.32856 -26 2
      vertex -23.1716 -26 -1.5
      vertex -23.1716 -26 2
    endloop
  endfacet
  facet normal 0 1 0
    outer loop
      vertex -23.1716 -26 -1.5
      vertex -1.76589 -26 -0.938944
      vertex 23.1716 -26 -1.5
    endloop
  endfacet
  facet normal 0 -1 0
    outer loop
      vertex -23.1716 26 -1.5
      vertex -3.32856 26 2
      vertex -23.1716 26 2
    endloop
  endfacet
  facet normal 0 -1 -0
    outer loop
      vertex -3.32856 26 2
      vertex -23.1716 26 -1.5
      vertex -1.76589 26 -0.938944
    endloop
  endfacet
  facet normal 0 -1 0
    outer loop
      vertex -1.543e-014 26 -4.76837e-007
      vertex 23.1716 26 2
      vertex -1.5675e-014 26 2
    endloop
  endfacet
  facet normal 0 -1 0
    outer loop
      vertex 23.1716 26 -1.5
      vertex -1.543e-014 26 -4.76837e-007
      vertex -1.76589 26 -0.938944
    endloop
  endfacet
  facet normal 0 -1 0
    outer loop
      vertex -1.543e-014 26 -4.76837e-007
      vertex 23.1716 26 -1.5
      vertex 23.1716 26 2
    endloop
  endfacet
  facet normal 0 -1 0
    outer loop
      vertex 23.1716 26 -1.5
      vertex -1.76589 26 -0.938944
      vertex -23.1716 26 -1.5
    endloop
  endfacet
  facet normal 0.707107 0.707107 0
    outer loop
      vertex -12.1716 15 2
      vertex -23.1716 26 -1.5
      vertex -23.1716 26 2
    endloop
  endfacet
  facet normal 0.707107 0.707107 0
    outer loop
      vertex -23.1716 26 -1.5
      vertex -12.1716 15 2
      vertex -12.1716 15 -1.5
    endloop
  endfacet
  facet normal -0.707107 -0.707107 0
    outer loop
      vertex -15 12.1716 -1.5
      vertex -26 23.1716 2
      vertex -26 23.1716 -1.5
    endloop
  endfacet
  facet normal -0.707107 -0.707107 0
    outer loop
      vertex -26 23.1716 2
      vertex -15 12.1716 -1.5
      vertex -15 12.1716 2
    endloop
  endfacet
  facet normal -0.707107 0.707107 0
    outer loop
      vertex 12.1716 15 -1.5
      vertex 23.1716 26 2
      vertex 23.1716 26 -1.5
    endloop
  endfacet
  facet normal -0.707107 0.707107 0
    outer loop
      vertex 23.1716 26 2
      vertex 12.1716 15 -1.5
      vertex 12.1716 15 2
    endloop
  endfacet
  facet normal 0.707107 -0.707107 0
    outer loop
      vertex 15 12.1716 2
      vertex 26 23.1716 -1.5
      vertex 26 23.1716 2
    endloop
  endfacet
  facet normal 0.707107 -0.707107 0
    outer loop
      vertex 26 23.1716 -1.5
      vertex 15 12.1716 2
      vertex 15 12.1716 -1.5
    endloop
  endfacet
  facet normal 0.707107 0.707107 0
    outer loop
      vertex 26 -23.1716 2
      vertex 15 -12.1716 -1.5
      vertex 15 -12.1716 2
    endloop
  endfacet
  facet normal 0.707107 0.707107 0
    outer loop
      vertex 15 -12.1716 -1.5
      vertex 26 -23.1716 2
      vertex 26 -23.1716 -1.5
    endloop
  endfacet
  facet normal -0.707107 -0.707107 0
    outer loop
      vertex 23.1716 -26 -1.5
      vertex 12.1716 -15 2
      vertex 12.1716 -15 -1.5
    endloop
  endfacet
  facet normal -0.707107 -0.707107 0
    outer loop
      vertex 12.1716 -15 2
      vertex 23.1716 -26 -1.5
      vertex 23.1716 -26 2
    endloop
  endfacet
  facet normal -0.707107 0.707107 0
    outer loop
      vertex -26 -23.1716 -1.5
      vertex -15 -12.1716 2
      vertex -15 -12.1716 -1.5
    endloop
  endfacet
  facet normal -0.707107 0.707107 0
    outer loop
      vertex -15 -12.1716 2
      vertex -26 -23.1716 -1.5
      vertex -26 -23.1716 2
    endloop
  endfacet
  facet normal 0.707107 -0.707107 0
    outer loop
      vertex -23.1716 -26 2
      vertex -12.1716 -15 -1.5
      vertex -12.1716 -15 2
    endloop
  endfacet
  facet normal 0.707107 -0.707107 0
    outer loop
      vertex -12.1716 -15 -1.5
      vertex -23.1716 -26 2
      vertex -23.1716 -26 -1.5
    endloop
  endfacet
  facet normal 1 -0 0
    outer loop
      vertex -26 -30 44.6388
      vertex -26 -26 2
      vertex -26 -26 44.6388
    endloop
  endfacet
  facet normal 1 0 0
    outer loop
      vertex -26 -26 2
      vertex -26 -30 44.6388
      vertex -26 -30 2
    endloop
  endfacet
  facet normal 0 1 -0
    outer loop
      vertex -26 -26 2
      vertex -30 -26 44.6388
      vertex -26 -26 44.6388
    endloop
  endfacet
  facet normal 0 1 0
    outer loop
      vertex -30 -26 44.6388
      vertex -26 -26 2
      vertex -30 -26 2
    endloop
  endfacet
  facet normal -1 0 0
    outer loop
      vertex 26 -30 2
      vertex 26 -26 44.6388
      vertex 26 -26 2
    endloop
  endfacet
  facet normal -1 -0 0
    outer loop
      vertex 26 -26 44.6388
      vertex 26 -30 2
      vertex 26 -30 44.6388
    endloop
  endfacet
  facet normal 0 -1 0
    outer loop
      vertex -30 26 2
      vertex -26 26 44.6388
      vertex -30 26 44.6388
    endloop
  endfacet
  facet normal 0 -1 -0
    outer loop
      vertex -26 26 44.6388
      vertex -30 26 2
      vertex -26 26 2
    endloop
  endfacet
  facet normal 1 -0 0
    outer loop
      vertex -26 26 44.6388
      vertex -26 30 2
      vertex -26 30 44.6388
    endloop
  endfacet
  facet normal 1 0 0
    outer loop
      vertex -26 30 2
      vertex -26 26 44.6388
      vertex -26 26 2
    endloop
  endfacet
  facet normal 0 0 0
    outer loop
      vertex -26 30 2
      vertex -26 30 49
      vertex -26 30 44.6388
    endloop
  endfacet
  facet normal 0 -1 0
    outer loop
      vertex 26 26 2
      vertex 30 26 44.6388
      vertex 26 26 44.6388
    endloop
  endfacet
  facet normal 0 -1 -0
    outer loop
      vertex 30 26 44.6388
      vertex 26 26 2
      vertex 30 26 2
    endloop
  endfacet
  facet normal 0 0 0
    outer loop
      vertex 30 26 2
      vertex 30 26 49
      vertex 30 26 44.6388
    endloop
  endfacet
  facet normal -1 0 0
    outer loop
      vertex 26 26 2
      vertex 26 30 44.6388
      vertex 26 30 2
    endloop
  endfacet
  facet normal -1 -0 0
    outer loop
      vertex 26 30 44.6388
      vertex 26 26 2
      vertex 26 26 44.6388
    endloop
  endfacet
  facet normal -0.882948 0 -0.469472
    outer loop
      vertex -3.32856 -30 2
      vertex -26 -26 44.6388
      vertex -3.32856 -26 2
    endloop
  endfacet
  facet normal -0.882948 -0 -0.469472
    outer loop
      vertex -26 -26 44.6388
      vertex -3.32856 -30 2
      vertex -26 -30 44.6388
    endloop
  endfacet
  facet normal 0.882948 -0 0.469472
    outer loop
      vertex -23.7886 -30 49
      vertex -1.27678e-014 -26 4.26011
      vertex -23.7886 -26 49
    endloop
  endfacet
  facet normal 0.882948 0 0.469472
    outer loop
      vertex -1.27678e-014 -26 4.26011
      vertex -23.7886 -30 49
      vertex -1.27678e-014 -30 4.26011
    endloop
  endfacet
  facet normal 0.882948 0 -0.469472
    outer loop
      vertex 26 -30 44.6388
      vertex 3.32856 -26 2
      vertex 26 -26 44.6388
    endloop
  endfacet
  facet normal 0.882948 0 -0.469472
    outer loop
      vertex 3.32856 -26 2
      vertex 26 -30 44.6388
      vertex 3.32856 -30 2
    endloop
  endfacet
  facet normal -0.882948 0 0.469472
    outer loop
      vertex -1.27678e-014 -30 4.26011
      vertex 23.7886 -26 49
      vertex -1.27678e-014 -26 4.26011
    endloop
  endfacet
  facet normal -0.882948 0 0.469472
    outer loop
      vertex 23.7886 -26 49
      vertex -1.27678e-014 -30 4.26011
      vertex 23.7886 -30 49
    endloop
  endfacet
  facet normal 0 0.882948 -0.469472
    outer loop
      vertex -26 3.32856 2
      vertex -30 26 44.6388
      vertex -26 26 44.6388
    endloop
  endfacet
  facet normal 0 0.882948 -0.469472
    outer loop
      vertex -30 26 44.6388
      vertex -26 3.32856 2
      vertex -30 3.32856 2
    endloop
  endfacet
  facet normal 1 -0 0
    outer loop
      vertex -26 23.7886 49
      vertex -26 26 44.6388
      vertex -26 26 49
    endloop
  endfacet
  facet normal 1 0 0
    outer loop
      vertex -26 -5.77316e-015 4.26011
      vertex -26 26 44.6388
      vertex -26 23.7886 49
    endloop
  endfacet
  facet normal 1 0 0
    outer loop
      vertex -26 26 44.6388
      vertex -26 -5.77316e-015 4.26011
      vertex -26 3.32856 2
    endloop
  endfacet
  facet normal 1 0 0
    outer loop
      vertex -26 -5.77316e-015 4.26011
      vertex -26 -5.77316e-015 2
      vertex -26 3.32856 2
    endloop
  endfacet
  facet normal 1 0 0
    outer loop
      vertex -26 -1.76589 -0.938944
      vertex -26 -5.77316e-015 2
      vertex -26 -5.77316e-015 4.26011
    endloop
  endfacet
  facet normal 1 0 0
    outer loop
      vertex -26 -5.77316e-015 2
      vertex -26 -1.76589 -0.938944
      vertex -26 -5.77316e-015 -4.76837e-007
    endloop
  endfacet
  facet normal 1 -0 0
    outer loop
      vertex -26 -26 44.6388
      vertex -26 -5.77316e-015 4.26011
      vertex -26 -23.7886 49
    endloop
  endfacet
  facet normal 1 0 0
    outer loop
      vertex -26 -26 44.6388
      vertex -26 -23.7886 49
      vertex -26 -26 49
    endloop
  endfacet
  facet normal 1 0 0
    outer loop
      vertex -26 -5.77316e-015 4.26011
      vertex -26 -26 44.6388
      vertex -26 -1.76589 -0.938944
    endloop
  endfacet
  facet normal 0 -0.882948 0.469472
    outer loop
      vertex -30 -6.66134e-015 4.26011
      vertex -26 23.7886 49
      vertex -30 23.7886 49
    endloop
  endfacet
  facet normal 0 -0.882948 0.469472
    outer loop
      vertex -26 23.7886 49
      vertex -30 -6.66134e-015 4.26011
      vertex -26 -5.77316e-015 4.26011
    endloop
  endfacet
  facet normal 0 -0.882948 -0.469472
    outer loop
      vertex -30 -3.32856 2
      vertex -26 -26 44.6388
      vertex -30 -26 44.6388
    endloop
  endfacet
  facet normal 0 -0.882948 -0.469472
    outer loop
      vertex -26 -26 44.6388
      vertex -30 -3.32856 2
      vertex -26 -3.32856 2
    endloop
  endfacet
  facet normal -1 0 0
    outer loop
      vertex -26 -26 44.6388
      vertex -26 -3.32856 2
      vertex -26 -1.76589 -0.938944
    endloop
  endfacet
  facet normal 0 0.882948 0.469472
    outer loop
      vertex -26 -5.77316e-015 4.26011
      vertex -30 -23.7886 49
      vertex -26 -23.7886 49
    endloop
  endfacet
  facet normal 0 0.882948 0.469472
    outer loop
      vertex -30 -23.7886 49
      vertex -26 -5.77316e-015 4.26011
      vertex -30 -6.66134e-015 4.26011
    endloop
  endfacet
  facet normal 0.882948 0 -0.469472
    outer loop
      vertex 26 26 44.6388
      vertex 3.32856 30 2
      vertex 26 30 44.6388
    endloop
  endfacet
  facet normal 0.882948 0 -0.469472
    outer loop
      vertex 3.32856 30 2
      vertex 26 26 44.6388
      vertex 3.32856 26 2
    endloop
  endfacet
  facet normal 0 1 0
    outer loop
      vertex -23.7886 30 49
      vertex -26 30 44.6388
      vertex -26 30 49
    endloop
  endfacet
  facet normal 0 1 0
    outer loop
      vertex -1.64416e-014 30 4.26011
      vertex -26 30 44.6388
      vertex -23.7886 30 49
    endloop
  endfacet
  facet normal 0 1 0
    outer loop
      vertex -3.32856 30 2
      vertex -1.64416e-014 30 4.26011
      vertex -1.61648e-014 30 2
    endloop
  endfacet
  facet normal 0 1 0
    outer loop
      vertex -1.64416e-014 30 4.26011
      vertex -3.32856 30 2
      vertex -26 30 44.6388
    endloop
  endfacet
  facet normal 0 -1 0
    outer loop
      vertex -26 26 44.6388
      vertex -23.7886 26 49
      vertex -26 26 49
    endloop
  endfacet
  facet normal 0 -1 0
    outer loop
      vertex -26 26 44.6388
      vertex -1.59517e-014 26 4.26011
      vertex -23.7886 26 49
    endloop
  endfacet
  facet normal 0 -1 0
    outer loop
      vertex -1.76589 26 -0.938944
      vertex -1.59517e-014 26 4.26011
      vertex -26 26 44.6388
    endloop
  endfacet
  facet normal 0 -1 -0
    outer loop
      vertex -1.59517e-014 26 4.26011
      vertex -1.76589 26 -0.938944
      vertex -1.5675e-014 26 2
    endloop
  endfacet
  facet normal 0 -1 -0
    outer loop
      vertex -1.5675e-014 26 2
      vertex -1.76589 26 -0.938944
      vertex -1.543e-014 26 -4.76837e-007
    endloop
  endfacet
  facet normal 0 -1 0
    outer loop
      vertex 23.7886 26 49
      vertex 26 26 44.6388
      vertex 26 26 49
    endloop
  endfacet
  facet normal 0 -1 0
    outer loop
      vertex -1.59517e-014 26 4.26011
      vertex 26 26 44.6388
      vertex 23.7886 26 49
    endloop
  endfacet
  facet normal 0 -1 0
    outer loop
      vertex 3.32856 26 2
      vertex -1.59517e-014 26 4.26011
      vertex -1.5675e-014 26 2
    endloop
  endfacet
  facet normal 0 -1 0
    outer loop
      vertex -1.59517e-014 26 4.26011
      vertex 3.32856 26 2
      vertex 26 26 44.6388
    endloop
  endfacet
  facet normal -0.882948 -1.08126e-016 0.469472
    outer loop
      vertex -1.59517e-014 26 4.26011
      vertex 23.7886 30 49
      vertex -1.64416e-014 30 4.26011
    endloop
  endfacet
  facet normal -0.882948 0 0.469472
    outer loop
      vertex 23.7886 30 49
      vertex -1.59517e-014 26 4.26011
      vertex 23.7886 26 49
    endloop
  endfacet
  facet normal -0.882948 0 -0.469472
    outer loop
      vertex -3.32856 26 2
      vertex -26 30 44.6388
      vertex -3.32856 30 2
    endloop
  endfacet
  facet normal -0.882948 -0 -0.469472
    outer loop
      vertex -26 30 44.6388
      vertex -3.32856 26 2
      vertex -26 26 44.6388
    endloop
  endfacet
  facet normal 0 1 0
    outer loop
      vertex -26 26 44.6388
      vertex -3.32856 26 2
      vertex -1.76589 26 -0.938944
    endloop
  endfacet
  facet normal 0.882948 -0 0.469472
    outer loop
      vertex -23.7886 26 49
      vertex -1.64416e-014 30 4.26011
      vertex -23.7886 30 49
    endloop
  endfacet
  facet normal 0.882948 1.08126e-016 0.469472
    outer loop
      vertex -1.64416e-014 30 4.26011
      vertex -23.7886 26 49
      vertex -1.59517e-014 26 4.26011
    endloop
  endfacet
  facet normal 0 -0.882948 -0.469472
    outer loop
      vertex 26 -3.32856 2
      vertex 30 -26 44.6388
      vertex 26 -26 44.6388
    endloop
  endfacet
  facet normal 0 -0.882948 -0.469472
    outer loop
      vertex 30 -26 44.6388
      vertex 26 -3.32856 2
      vertex 30 -3.32856 2
    endloop
  endfacet
  facet normal -1 0 0
    outer loop
      vertex 30 -26 44.6388
      vertex 30 -3.32856 2
      vertex 30 -1.76589 -0.938944
    endloop
  endfacet
  facet normal 1 -0 -0
    outer loop
      vertex 30 -26 44.6388
      vertex 30 -1.76589 -0.938944
      vertex 30 -28.0563 48.5061
    endloop
  endfacet
  facet normal 1 -0 0
    outer loop
      vertex 30 23.7886 49
      vertex 30 26 44.6388
      vertex 30 26 49
    endloop
  endfacet
  facet normal 1 0 0
    outer loop
      vertex 30 6.66134e-015 4.26011
      vertex 30 26 44.6388
      vertex 30 23.7886 49
    endloop
  endfacet
  facet normal 1 0 0
    outer loop
      vertex 30 26 44.6388
      vertex 30 6.66134e-015 4.26011
      vertex 30 3.32856 2
    endloop
  endfacet
  facet normal 1 0 0
    outer loop
      vertex 30 6.66134e-015 4.26011
      vertex 30 6.66134e-015 2
      vertex 30 3.32856 2
    endloop
  endfacet
  facet normal 1 0 0
    outer loop
      vertex 30 -1.76589 -0.938944
      vertex 30 6.66134e-015 2
      vertex 30 6.66134e-015 4.26011
    endloop
  endfacet
  facet normal 1 0 0
    outer loop
      vertex 30 6.66134e-015 2
      vertex 30 -1.76589 -0.938944
      vertex 30 6.66134e-015 -4.76837e-007
    endloop
  endfacet
  facet normal 1 -0 0
    outer loop
      vertex 30 -28.0563 48.5061
      vertex 30 6.66134e-015 4.26011
      vertex 30 -23.7886 49
    endloop
  endfacet
  facet normal 1 0 0
    outer loop
      vertex 30 -28.0563 48.5061
      vertex 30 -23.7886 49
      vertex 30 -27.1275 49
    endloop
  endfacet
  facet normal 1 0 0
    outer loop
      vertex 30 6.66134e-015 4.26011
      vertex 30 -28.0563 48.5061
      vertex 30 -1.76589 -0.938944
    endloop
  endfacet
  facet normal -1 0 0
    outer loop
      vertex 26 26 44.6388
      vertex 26 23.7886 49
      vertex 26 26 49
    endloop
  endfacet
  facet normal -1 0 0
    outer loop
      vertex 26 5.77316e-015 4.26011
      vertex 26 26 44.6388
      vertex 26 1.76589 -0.938944
    endloop
  endfacet
  facet normal -1 0 0
    outer loop
      vertex 26 5.77316e-015 2
      vertex 26 1.76589 -0.938944
      vertex 26 5.77316e-015 -4.76837e-007
    endloop
  endfacet
  facet normal -1 0 0
    outer loop
      vertex 26 5.77316e-015 4.26011
      vertex 26 1.76589 -0.938944
      vertex 26 5.77316e-015 2
    endloop
  endfacet
  facet normal -1 -0 0
    outer loop
      vertex 26 26 44.6388
      vertex 26 5.77316e-015 4.26011
      vertex 26 23.7886 49
    endloop
  endfacet
  facet normal -1 0 0
    outer loop
      vertex 26 -3.32856 2
      vertex 26 5.77316e-015 4.26011
      vertex 26 5.77316e-015 2
    endloop
  endfacet
  facet normal -1 0 0
    outer loop
      vertex 26 -26 44.6388
      vertex 26 5.77316e-015 4.26011
      vertex 26 -3.32856 2
    endloop
  endfacet
  facet normal -1 0 0
    outer loop
      vertex 26 5.77316e-015 4.26011
      vertex 26 -26 44.6388
      vertex 26 -23.7886 49
    endloop
  endfacet
  facet normal -1 -0 0
    outer loop
      vertex 26 -23.7886 49
      vertex 26 -26 44.6388
      vertex 26 -26 49
    endloop
  endfacet
  facet normal 0 0.882948 0.469472
    outer loop
      vertex 30 6.66134e-015 4.26011
      vertex 26 -23.7886 49
      vertex 30 -23.7886 49
    endloop
  endfacet
  facet normal 0 0.882948 0.469472
    outer loop
      vertex 26 -23.7886 49
      vertex 30 6.66134e-015 4.26011
      vertex 26 5.77316e-015 4.26011
    endloop
  endfacet
  facet normal 0 0.882948 -0.469472
    outer loop
      vertex 30 3.32856 2
      vertex 26 26 44.6388
      vertex 30 26 44.6388
    endloop
  endfacet
  facet normal 0 0.882948 -0.469472
    outer loop
      vertex 26 26 44.6388
      vertex 30 3.32856 2
      vertex 26 3.32856 2
    endloop
  endfacet
  facet normal 1 -0 0
    outer loop
      vertex 26 3.32856 2
      vertex 26 1.76589 -0.938944
      vertex 26 26 44.6388
    endloop
  endfacet
  facet normal 0 -0.882948 0.469472
    outer loop
      vertex 26 5.77316e-015 4.26011
      vertex 30 23.7886 49
      vertex 26 23.7886 49
    endloop
  endfacet
  facet normal 0 -0.882948 0.469472
    outer loop
      vertex 30 23.7886 49
      vertex 26 5.77316e-015 4.26011
      vertex 30 6.66134e-015 4.26011
    endloop
  endfacet
  facet normal 1 -0 0
    outer loop
      vertex 15 -12.1716 2
      vertex 15 12.1716 -1.5
      vertex 15 12.1716 2
    endloop
  endfacet
  facet normal 1 0 0
    outer loop
      vertex 15 12.1716 -1.5
      vertex 15 -12.1716 2
      vertex 15 -12.1716 -1.5
    endloop
  endfacet
  facet normal -1 0 0
    outer loop
      vertex -15 -12.1716 -1.5
      vertex -15 12.1716 2
      vertex -15 12.1716 -1.5
    endloop
  endfacet
  facet normal -1 -0 0
    outer loop
      vertex -15 12.1716 2
      vertex -15 -12.1716 -1.5
      vertex -15 -12.1716 2
    endloop
  endfacet
  facet normal 0 1 -0
    outer loop
      vertex 12.1716 15 -1.5
      vertex -12.1716 15 2
      vertex 12.1716 15 2
    endloop
  endfacet
  facet normal 0 1 0
    outer loop
      vertex -12.1716 15 2
      vertex 12.1716 15 -1.5
      vertex -12.1716 15 -1.5
    endloop
  endfacet
  facet normal 0 -1 0
    outer loop
      vertex -12.1716 -15 -1.5
      vertex 12.1716 -15 2
      vertex -12.1716 -15 2
    endloop
  endfacet
  facet normal 0 -1 -0
    outer loop
      vertex 12.1716 -15 2
      vertex -12.1716 -15 -1.5
      vertex 12.1716 -15 -1.5
    endloop
  endfacet
  facet normal -1 0 0
    outer loop
      vertex -30 26 44.6388
      vertex -30 30 -1.5
      vertex -30 26 2
    endloop
  endfacet
  facet normal -1 0 0
    outer loop
      vertex -30 30 -1.5
      vertex -30 3.32856 2
      vertex -30 26 2
    endloop
  endfacet
  facet normal -1 0 0
    outer loop
      vertex -30 3.32856 2
      vertex -30 -3.32856 2
      vertex -30 -6.66134e-015 4.26011
    endloop
  endfacet
  facet normal -1 0 0
    outer loop
      vertex -30 30 -1.5
      vertex -30 -3.32856 2
      vertex -30 3.32856 2
    endloop
  endfacet
  facet normal -1 0 0
    outer loop
      vertex -30 -30 -1.5
      vertex -30 -3.32856 2
      vertex -30 30 -1.5
    endloop
  endfacet
  facet normal -1 -0 0
    outer loop
      vertex -30 -26 2
      vertex -30 -30 -1.5
      vertex -30 -26 44.6388
    endloop
  endfacet
  facet normal -1 -0 0
    outer loop
      vertex -30 -3.32856 2
      vertex -30 -30 -1.5
      vertex -30 -26 2
    endloop
  endfacet
  facet normal -1 0 0
    outer loop
      vertex -30 30 -1.5
      vertex -30 26 44.6388
      vertex -30 30 49
    endloop
  endfacet
  facet normal -1 0 0
    outer loop
      vertex -30 26 44.6388
      vertex -30 23.7886 49
      vertex -30 30 49
    endloop
  endfacet
  facet normal -1 0 0
    outer loop
      vertex -30 -6.66134e-015 4.26011
      vertex -30 26 44.6388
      vertex -30 3.32856 2
    endloop
  endfacet
  facet normal -1 -0 0
    outer loop
      vertex -30 26 44.6388
      vertex -30 -6.66134e-015 4.26011
      vertex -30 23.7886 49
    endloop
  endfacet
  facet normal -1 0 0
    outer loop
      vertex -30 -26 44.6388
      vertex -30 -6.66134e-015 4.26011
      vertex -30 -3.32856 2
    endloop
  endfacet
  facet normal -1 0 0
    outer loop
      vertex -30 -6.66134e-015 4.26011
      vertex -30 -26 44.6388
      vertex -30 -23.7886 49
    endloop
  endfacet
  facet normal -1 0 0
    outer loop
      vertex -30 -26 44.6388
      vertex -30 -30 49
      vertex -30 -23.7886 49
    endloop
  endfacet
  facet normal -1 0 0
    outer loop
      vertex -30 -30 49
      vertex -30 -26 44.6388
      vertex -30 -30 -1.5
    endloop
  endfacet
  facet normal 0 0 1
    outer loop
      vertex -26 -23.7886 49
      vertex -30 -23.7886 49
      vertex -26 -26 49
    endloop
  endfacet
  facet normal -0 0 1
    outer loop
      vertex -26 -26 49
      vertex -23.7886 -30 49
      vertex -23.7886 -26 49
    endloop
  endfacet
  facet normal 0 0 1
    outer loop
      vertex -30 -30 49
      vertex -26 -26 49
      vertex -30 -23.7886 49
    endloop
  endfacet
  facet normal 0 0 1
    outer loop
      vertex -26 -26 49
      vertex -30 -30 49
      vertex -23.7886 -30 49
    endloop
  endfacet
  facet normal -0 0 1
    outer loop
      vertex -26 30 49
      vertex -23.7886 26 49
      vertex -23.7886 30 49
    endloop
  endfacet
  facet normal 0 0 1
    outer loop
      vertex -26 30 49
      vertex -26 26 49
      vertex -23.7886 26 49
    endloop
  endfacet
  facet normal -0 0 1
    outer loop
      vertex -30 30 49
      vertex -26 26 49
      vertex -26 30 49
    endloop
  endfacet
  facet normal 0 0 1
    outer loop
      vertex -30 23.7886 49
      vertex -26 26 49
      vertex -30 30 49
    endloop
  endfacet
  facet normal 0 0 1
    outer loop
      vertex -26 26 49
      vertex -30 23.7886 49
      vertex -26 23.7886 49
    endloop
  endfacet
  facet normal -0 0 1
    outer loop
      vertex 26 -26 49
      vertex 30 -27.1275 49
      vertex 30 -23.7886 49
    endloop
  endfacet
  facet normal 0 0 1
    outer loop
      vertex 26 -26 49
      vertex 30 -23.7886 49
      vertex 26 -23.7886 49
    endloop
  endfacet
  facet normal 0 0 1
    outer loop
      vertex 30 -27.1275 49
      vertex 26 -26 49
      vertex 30 -30 49
    endloop
  endfacet
  facet normal 0 0 1
    outer loop
      vertex 23.7886 -30 49
      vertex 26 -26 49
      vertex 23.7886 -26 49
    endloop
  endfacet
  facet normal 0 0 1
    outer loop
      vertex 26 -26 49
      vertex 23.7886 -30 49
      vertex 30 -30 49
    endloop
  endfacet
  facet normal 0 0 1
    outer loop
      vertex 26 26 49
      vertex 30 26 49
      vertex 30 30 49
    endloop
  endfacet
  facet normal 0 0 1
    outer loop
      vertex 30 26 49
      vertex 26 26 49
      vertex 30 23.7886 49
    endloop
  endfacet
  facet normal -0 0 1
    outer loop
      vertex 23.7886 30 49
      vertex 26 26 49
      vertex 30 30 49
    endloop
  endfacet
  facet normal 0 0 1
    outer loop
      vertex 26 26 49
      vertex 23.7886 30 49
      vertex 23.7886 26 49
    endloop
  endfacet
  facet normal 0 0 1
    outer loop
      vertex 30 23.7886 49
      vertex 26 26 49
      vertex 26 23.7886 49
    endloop
  endfacet
  facet normal 0 0 -1
    outer loop
      vertex -15 12.1716 -1.5
      vertex -12.1716 15 -1.5
      vertex -15 -12.1716 -1.5
    endloop
  endfacet
  facet normal 0 0 -1
    outer loop
      vertex -15 12.1716 -1.5
      vertex -23.1716 26 -1.5
      vertex -12.1716 15 -1.5
    endloop
  endfacet
  facet normal 0 -0 -1
    outer loop
      vertex -23.1716 26 -1.5
      vertex -15 12.1716 -1.5
      vertex -26 23.1716 -1.5
    endloop
  endfacet
  facet normal 0 0 -1
    outer loop
      vertex 15 12.1716 -1.5
      vertex 23.1716 26 -1.5
      vertex 26 23.1716 -1.5
    endloop
  endfacet
  facet normal 0 0 -1
    outer loop
      vertex 15 12.1716 -1.5
      vertex 12.1716 15 -1.5
      vertex 23.1716 26 -1.5
    endloop
  endfacet
  facet normal 0 0 -1
    outer loop
      vertex 12.1716 -15 -1.5
      vertex 12.1716 15 -1.5
      vertex 15 12.1716 -1.5
    endloop
  endfacet
  facet normal 0 0 -1
    outer loop
      vertex -12.1716 -15 -1.5
      vertex 12.1716 15 -1.5
      vertex 12.1716 -15 -1.5
    endloop
  endfacet
  facet normal 0 0 -1
    outer loop
      vertex -12.1716 -15 -1.5
      vertex -12.1716 15 -1.5
      vertex 12.1716 15 -1.5
    endloop
  endfacet
  facet normal 0 0 -1
    outer loop
      vertex -12.1716 -15 -1.5
      vertex -15 -12.1716 -1.5
      vertex -12.1716 15 -1.5
    endloop
  endfacet
  facet normal 0 0 -1
    outer loop
      vertex -23.1716 -26 -1.5
      vertex -15 -12.1716 -1.5
      vertex -12.1716 -15 -1.5
    endloop
  endfacet
  facet normal 0 0 -1
    outer loop
      vertex -15 -12.1716 -1.5
      vertex -23.1716 -26 -1.5
      vertex -26 -23.1716 -1.5
    endloop
  endfacet
  facet normal 0 0 -1
    outer loop
      vertex 30 -30 -1.5
      vertex 26 -23.1716 -1.5
      vertex 30 30 -1.5
    endloop
  endfacet
  facet normal 0 0 -1
    outer loop
      vertex 30 -30 -1.5
      vertex 23.1716 -26 -1.5
      vertex 26 -23.1716 -1.5
    endloop
  endfacet
  facet normal 0 0 -1
    outer loop
      vertex 30 -30 -1.5
      vertex -23.1716 -26 -1.5
      vertex 23.1716 -26 -1.5
    endloop
  endfacet
  facet normal -0 0 -1
    outer loop
      vertex -26 -23.1716 -1.5
      vertex -30 -30 -1.5
      vertex -26 23.1716 -1.5
    endloop
  endfacet
  facet normal -0 0 -1
    outer loop
      vertex -23.1716 -26 -1.5
      vertex -30 -30 -1.5
      vertex -26 -23.1716 -1.5
    endloop
  endfacet
  facet normal 0 0 -1
    outer loop
      vertex -30 -30 -1.5
      vertex -23.1716 -26 -1.5
      vertex 30 -30 -1.5
    endloop
  endfacet
  facet normal 0 0 -1
    outer loop
      vertex 26 23.1716 -1.5
      vertex 30 30 -1.5
      vertex 26 -23.1716 -1.5
    endloop
  endfacet
  facet normal 0 0 -1
    outer loop
      vertex 23.1716 26 -1.5
      vertex 30 30 -1.5
      vertex 26 23.1716 -1.5
    endloop
  endfacet
  facet normal 0 0 -1
    outer loop
      vertex -23.1716 26 -1.5
      vertex 30 30 -1.5
      vertex 23.1716 26 -1.5
    endloop
  endfacet
  facet normal 0 0 -1
    outer loop
      vertex -23.1716 26 -1.5
      vertex -30 30 -1.5
      vertex 30 30 -1.5
    endloop
  endfacet
  facet normal 0 0 -1
    outer loop
      vertex -26 23.1716 -1.5
      vertex -30 30 -1.5
      vertex -23.1716 26 -1.5
    endloop
  endfacet
  facet normal 0 0 -1
    outer loop
      vertex -30 30 -1.5
      vertex -26 23.1716 -1.5
      vertex -30 -30 -1.5
    endloop
  endfacet
  facet normal 0 0 -1
    outer loop
      vertex 23.1716 -26 -1.5
      vertex 15 -12.1716 -1.5
      vertex 26 -23.1716 -1.5
    endloop
  endfacet
  facet normal -0 0 -1
    outer loop
      vertex 15 -12.1716 -1.5
      vertex 12.1716 -15 -1.5
      vertex 15 12.1716 -1.5
    endloop
  endfacet
  facet normal 0 0 -1
    outer loop
      vertex 12.1716 -15 -1.5
      vertex 15 -12.1716 -1.5
      vertex 23.1716 -26 -1.5
    endloop
  endfacet
endsolid OpenSCAD_Model
